# xmcd
# 
# Track frame offsets:
#     150
#     23805
#     42675
#     60485
#     75612
#     96380
#     114772
#     137430
#     165740
#     192132
#     205962
#     224127
# 
# Disc length: 3290
# 
# Revision: 1
# Processed by: cddbd v1.5.2PL0 Copyright (c) Steve Scherf et al.
# Submitted via: BonkEnc v1.0.8
# 
DISCID=a80cd80c
DTITLE=Dickie Peterson - Tramp
DYEAR=1999
DGENRE=Blues
TTITLE0=Red House
TTITLE1=Call me the Breeze
TTITLE2=The Pilot
TTITLE3=Hello L.A. Bye Bye Birmingham
TTITLE4=Killing Floor
TTITLE5=The Hunter
TTITLE6=Girl Next Door
TTITLE7=Hoochie Coochie Man
TTITLE8=Blue Steel Dues
TTITLE9=Born in Chicago
TTITLE10=Summertime Blues
TTITLE11=Red House
EXTD=
EXTT0=
EXTT1=
EXTT2=
EXTT3=
EXTT4=
EXTT5=
EXTT6=
EXTT7=
EXTT8=
EXTT9=
EXTT10=
EXTT11=
PLAYORDER=
